# AST/ASF file generated using VICON BodyLanguage
# -----------------------------------------------
:version 1.10
:name VICON
:units
  mass 1.0
  length 0.45
  angle deg
:documentation
   .ast/.asf automatically generated from VICON data using
   VICON BodyBuilder and BodyLanguage model FoxedUp or BRILLIANT.MOD
:root
   order TX TY TZ RX RY RZ
   axis XYZ
   position 0 0 0  
   orientation 0 0 0 
:bonedata
  begin
     id 1 
     name lhipjoint
     direction 0.528046 -0.759594 0.379717 
     length 2.39752 
     axis 0 0 0  XYZ
  end
  begin
     id 2 
     name lfemur
     direction 0.34202 -0.939693 0  
     length 7.31175  
     axis 0 0 20  XYZ
    dof rx ry rz
    limits (-160.0 20.0)
           (-70.0 70.0)
           (-60.0 70.0)
  end
  begin
     id 3 
     name ltibia
     direction 0.34202 -0.939693 0   
     length 7.52482   
     axis 0 0 20   XYZ
    dof rx
    limits (-10.0 170.0)
  end
  begin
     id 4 
     name lfoot
     direction 0.0675379 -0.185559 0.980309   
     length 2.00961   
     axis -90 7.62852e-016 20   XYZ
    dof rx rz
    limits (-45.0 90.0)
           (-70.0 20.0)
  end
  begin
     id 5 
     name ltoes
     direction 1.5352e-011 -4.22286e-011 1   
     length 1.01383   
     axis -90 7.62852e-016 20   XYZ
    dof rx
    limits (-90.0 20.0)
  end
  begin
     id 6 
     name rhipjoint
     direction -0.510274 -0.769251 0.384544   
     length 2.36742  
     axis 0 0 0  XYZ 
  end
  begin
     id 7 
     name rfemur
     direction -0.34202 -0.939693 0   
     length 7.45325   
     axis 0 0 -20   XYZ
    dof rx ry rz
    limits (-160.0 20.0)
           (-70.0 70.0)
           (-70.0 60.0)
  end
  begin
     id 8 
     name rtibia
     direction -0.34202 -0.939693 0   
     length 7.49587   
     axis 0 0 -20   XYZ
    dof rx
    limits (-10.0 170.0)
 end
 begin
     id 9 
     name rfoot
     direction -0.106475 -0.292536 0.950308   
     length 2.20898  
     axis -90 -7.62852e-016 -20   XYZ
    dof rx rz
    limits (-45.0 90.0)
           (-20.0 70.0)
  end
  begin
     id 10 
     name rtoes
     direction -1.53597e-011 -4.22023e-011 1   
     length 1.10065   
     axis -90 -7.62852e-016 -20   XYZ
    dof rx
    limits (-90.0 20.0)
  end
  begin
     id 11 
     name lowerback
     direction 0.0260024 0.998026 -0.0571652   
     length 2.11214   
     axis 0 0 0   XYZ
    dof rx ry rz
    limits (-20.0 45.0)
           (-30.0 30.0)
           (-30.0 30.0)
  end
  begin
     id 12 
     name upperback
     direction 0.0216202 0.999542 -0.0211766   
     length 2.11689   
     axis 0 0 0   XYZ
    dof rx ry rz
    limits (-20.0 45.0)
           (-30.0 30.0)
           (-30.0 30.0)
  end
  begin
     id 13 
     name thorax
     direction 0.00883312 0.999944 0.00589057   
     length 2.11821   
     axis 0 0 0   XYZ
    dof rx ry rz
    limits (-20.0 45.0)
           (-30.0 30.0)
           (-30.0 30.0)
  end
  begin
     id 14 
     name lowerneck
     direction -0.059386 0.994433 0.0870401   
     length 1.81176   
     axis 0 0 0   XYZ
    dof rx ry rz
    limits (-20.0 45.0)
           (-30.0 30.0)
           (-30.0 30.0)
  end
  begin
     id 15 
     name upperneck
     direction 0.0506457 0.97328 -0.223967   
     length 1.82382   
     axis 0 0 0   XYZ
    dof rx ry rz
    limits (-20.0 45.0)
           (-30.0 30.0)
           (-30.0 30.0)
  end
  begin
     id 16
     name head
     direction 0.0205902 0.996147 -0.0852487  
     length 1.84805  
     axis 0 0 0   XYZ
    dof rx ry rz
    limits (-20.0 45.0)
           (-30.0 30.0)
           (-30.0 30.0)
  end
  begin
     id 17 
     name lclavicle
     direction 0.949493 0.303881 -0.0782325  
     length 3.60584  
     axis 0 0 0   XYZ
    dof ry rz
    limits (-20.0 10.0)
           (0.0 20.0)
  end
  begin
     id 18 
     name lhumerus
     direction 1 -4.48965e-011 1.48782e-027   
     length 4.95681   
     axis 180 -30 -90   XYZ
    dof rx ry rz
    limits (-60.0 90.0)
           (-90.0 90.0)
           (-90.0 90.0)
  end
  begin
     id 19
     name lradius
     direction 1 -4.48952e-011 2.06528e-027   
     length 3.40915   
     axis 180 -30 -90   XYZ
    dof rx
    limits (-10.0 170.0)
  end
  begin
     id 20
     name lwrist
     direction 1 -4.48964e-011 1.28021e-027   
     length 1.70457   
     axis -1.61767e-015 90 90   XYZ
    dof ry
    limits (-180.0 0.0)
 end
  begin
     id 21 
     name lhand
     direction 1 -4.49094e-011 2.54887e-027   
     length 0.616403   
     axis -1.63363e-015 90 90   XYZ
    dof rx rz
    limits (-90.0 90.0)
           (-45.0 45.0)
  end
  begin
     id 22 
     name lfingers
     direction 1 -4.49002e-011 5.11407e-027   
     length 0.49696   
     axis -3.26723e-015 90 90   XYZ
    dof rx
    limits (0.0 90.0)
  end
  begin
     id 23
     name lthumb
     direction 0.707107 -6.34998e-011 0.707107   
     length 0.713539   
     axis -90 45 -2.25915e-014   XYZ
    dof rx rz
    limits (-45.0 45.0)
           (-45.0 45.0)
  end
  begin
     id 24 
     name rclavicle
     direction -0.937751 0.334612 -0.0930482   
     length 3.46287  
     axis 0 0 0   XYZ 
    dof ry rz
    limits (-10.0 20.0)
           (-20.0 0.0)
  end
  begin
     id 25 
     name rhumerus
     direction -1 -4.48962e-011 3.59972e-027  
     length 5.352   
     axis 180 30 90   XYZ
    dof rx ry rz
    limits (-90.0 60.0)
           (-90.0 90.0)
           (-90.0 90.0)
  end
  begin
     id 26 
     name rradius
     direction -1 -4.48987e-011 -3.76925e-027   
     length 3.43721   
     axis 180 30 90   XYZ
    dof rx
    limits (-10.0 170.0)
  end
  begin
     id 27 
     name rwrist
     direction -1 -4.48943e-011 1.28112e-027   
     length 1.7186   
     axis -1.61767e-015 -90 -90   XYZ
    dof ry
    limits (-180.0 0.0)
  end
  begin
     id 28
     name rhand
     direction -1 -4.49027e-011 2.55483e-027   
     length 0.72009   
     axis -1.63363e-015 -90 -90   XYZ
    dof rx rz
    limits (-90.0 90.0)
           (-45.0 45.0)
  end
  begin
     id 29
     name rfingers
     direction -1 -4.48827e-011 5.14506e-027   
     length 0.580555   
     axis -3.26723e-015 -90 -90   XYZ
    dof rx
    limits (0.0 90.0)
  end
  begin
     id 30
     name rthumb
     direction -0.707107 -6.34936e-011 0.707107   
     length 0.833564   
     axis -90 -45 2.25915e-014   XYZ
    dof rx rz
    limits (-45.0 45.0)
           (-45.0 45.0)
  end
:hierarchy
  begin
    root lhipjoint rhipjoint lowerback
    lhipjoint lfemur
    lfemur ltibia
    ltibia lfoot
    lfoot ltoes
    rhipjoint rfemur
    rfemur rtibia
    rtibia rfoot
    rfoot rtoes
    lowerback upperback
    upperback thorax
    thorax lowerneck lclavicle rclavicle
    lowerneck upperneck
    upperneck head
    lclavicle lhumerus
    lhumerus lradius
    lradius lwrist
    lwrist lhand lthumb
    lhand lfingers
    rclavicle rhumerus
    rhumerus rradius
    rradius rwrist
    rwrist rhand rthumb
    rhand rfingers
  end

#!OML:ASF H:\Terrain\Patient Classification 1\Terrain2\Thursday\justin.ASF
:FULLY-SPECIFIED
:DEGREES
117
root -12.0965 17.1923 0.197504 -46.208 79.5595 -38.2666
lowerback 15.3091 0.970323 6.59239
upperback 7.04377 2.6475 2.72227
thorax -0.93646 1.58931 -1.27183
lowerneck -14.1404 -1.84585 -8.47439
upperneck 36.1292 -0.0102339 3.41241
head 14.9655 -0.257564 3.04612
rclavicle 2.36554e-014 7.95139e-015
rhumerus -27.2877 0.628212 -84.13
rradius 28.003
rwrist -6.14114
rhand -20.8328 13.597
rfingers 7.12502
rthumb 5.53583 -16.3107
lclavicle 2.36554e-014 7.95139e-015
lhumerus -32.1243 1.582 86.384
lradius 31.3709
lwrist 0.763958
lhand -15.8208 20.1779
lfingers 7.12502
lthumb 10.373 49.902
rfemur 15.4679 0.655385 30.4446
rtibia 22.7661
rfoot -18.6303 -5.89544
rtoes 1.91763
lfemur -79.8817 14.5392 -10.9535
ltibia 97.1029
lfoot 0.266645 -18.1174
ltoes 0.212337
118
root -12.0403 17.1859 0.189518 -47.1954 79.6017 -39.3451
lowerback 15.5714 1.02815 6.76035
upperback 7.04594 2.77146 2.63618
thorax -1.05058 1.65401 -1.48373
lowerneck -14.4061 -1.98046 -8.19988
upperneck 36.283 -0.297112 3.49745
head 15.1202 -0.333264 2.9953
rclavicle 2.74323e-014 1.86858e-014
rhumerus -27.0218 -0.00150242 -84.2884
rradius 27.7125
rwrist -5.66522
rhand -20.9876 13.7071
rfingers 7.12502
rthumb 5.38635 -16.2045
lclavicle 2.74323e-014 1.86858e-014
lhumerus -31.8888 1.74901 86.1374
lradius 31.1935
lwrist 0.154205
lhand -15.7704 20.4683
lfingers 7.12502
lthumb 10.4216 50.19
rfemur 15.1482 0.419874 30.4496
rtibia 23.5396
rfoot -18.7028 -5.78581
rtoes 2.01688
lfemur -79.7544 14.3891 -11.1234
ltibia 97.2991
lfoot -0.937329 -17.7453
ltoes -1.45259
119
root -11.9848 17.1876 0.183628 -47.8488 79.5476 -40.0833
lowerback 15.7593 1.03145 6.65851
upperback 7.07749 2.78603 2.73713
thorax -1.1266 1.65861 -1.32981
lowerneck -14.5095 -1.96858 -8.33477
upperneck 36.1865 -0.262155 3.55278
head 15.0963 -0.331439 3.04479
rclavicle -2.17669e-014 -1.19271e-014
rhumerus -26.687 -0.155392 -84.3104
rradius 27.4759
rwrist -5.41788
rhand -21.1748 14.1013
rfingers 7.12502
rthumb 5.20555 -15.8148
lclavicle -2.17669e-014 -1.19271e-014
lhumerus -31.763 2.16638 86.0624
lradius 31.0428
lwrist -0.35189
lhand -15.8995 20.607
lfingers 7.12502
lthumb 10.2971 50.335
rfemur 14.845 0.385135 30.5327
rtibia 24.3431
rfoot -18.6641 -5.8541
rtoes 1.32268
lfemur -79.7064 14.387 -11.1243
ltibia 97.6359
lfoot -0.870786 -17.5996
ltoes 3.23848
120
root -11.9298 17.1753 0.167677 -49.5016 79.5124 -41.9204
lowerback 15.8895 0.923293 6.69909
upperback 7.10493 2.67557 2.93997
thorax -1.18213 1.6041 -1.12646
lowerneck -14.485 -1.89007 -8.50557
upperneck 35.8899 -0.0887089 3.4585
head 14.9371 -0.294397 3.0503
rclavicle -3.88624e-014 -2.66371e-014
rhumerus -26.3997 0.0105069 -84.1834
rradius 27.4298
rwrist -5.02731
rhand -20.8513 14.0981
rfingers 7.12502
rthumb 5.51789 -15.8101
lclavicle -3.88624e-014 -2.66371e-014
lhumerus -31.7041 2.21846 86.266
lradius 31.0287
lwrist -0.175493
lhand -15.6531 20.3579
lfingers 7.12502
lthumb 10.5348 50.0739
rfemur 14.5337 0.488332 30.8415
rtibia 25.0166
rfoot -18.5686 -6.10902
rtoes 0.205271
lfemur -80.0116 14.276 -11.1984
ltibia 98.1064
lfoot -1.01383 -17.4843
ltoes 4.84693
121
root -11.875 17.1725 0.154899 -50.9593 79.6034 -43.5982
lowerback 16.0625 0.82413 6.71485
upperback 7.10157 2.57249 3.02988
thorax -1.2875 1.55095 -1.03061
lowerneck -14.3899 -1.87226 -8.52288
upperneck 35.585 -0.126656 3.53931
head 14.7717 -0.301474 3.06715
rclavicle 7.25564e-015 1.70955e-014
rhumerus -26.1948 0.191448 -84.1897
rradius 27.5126
rwrist -4.77485
rhand -20.3951 13.9678
rfingers 7.12502
rthumb 5.95841 -15.9284
lclavicle 7.25564e-015 1.70955e-014
lhumerus -31.6928 1.79905 86.4742
lradius 31.1677
lwrist 0.353593
lhand -15.1511 19.8935
lfingers 7.12502
lthumb 11.019 49.5842
rfemur 14.2087 0.374088 30.9372
rtibia 25.499
rfoot -18.6525 -5.99146
rtoes 1.33467
lfemur -80.3664 14.0893 -11.3727
ltibia 98.5961
lfoot -0.37705 -17.0439
ltoes 11.6676
